<svg width="38" height="65" viewBox="0 0 38 65" fill="none" xmlns="http://www.w3.org/2000/svg">
<path d="M4.84328 45.6661C5.30952 45.2983 5.98565 45.3782 6.35345 45.8444L19.8647 62.9723L18.1763 64.3042L4.66502 47.1763C4.29722 46.7101 4.37703 46.0339 4.84328 45.6661Z" fill="url(#paint0_linear_30559_46017)" fill-opacity="0.29"/>
<path fill-rule="evenodd" clip-rule="evenodd" d="M19.9976 37.8394C30.0273 37.3225 38 29.0553 38 18.9326C38 8.47652 29.4934 0.000183105 19 0.000183105C8.50659 0.000183105 0 8.47652 0 18.9326C0 29.0709 7.99733 37.3479 18.0488 37.8417V64.0257C18.0488 64.5639 18.4851 65.0001 19.0232 65.0001C19.5613 65.0001 19.9976 64.5639 19.9976 64.0257V37.8394Z" fill="#DA4E41"/>
<path d="M19 29.4597C21.1757 29.4597 23.3025 28.8105 25.1115 27.5943C26.9205 26.378 28.3304 24.6493 29.1629 22.6268C29.9954 20.6043 30.2131 18.3788 29.7885 16.2317C29.3639 14.0847 28.316 12.1126 26.7774 10.5648C25.2388 9.01699 23.2786 7.96303 21.1447 7.53621C19.0108 7.10939 16.799 7.32887 14.789 8.1669C12.7791 9.00492 11.0613 10.4239 9.85282 12.2442C8.64438 14.0646 7.99959 16.2047 8 18.3938C8 19.8472 8.28454 21.2863 8.83737 22.6291C9.39019 23.9718 10.2005 25.1917 11.222 26.2193C12.2434 27.2469 13.4561 28.062 14.7906 28.618C16.1252 29.174 17.5556 29.46 19 29.4597Z" fill="#F86B5D"/>
<path d="M19.1769 22.3777C19.9252 22.3781 20.6568 22.1551 21.2791 21.737C21.9014 21.3189 22.3866 20.7244 22.6731 20.0287C22.9596 19.3331 23.0347 18.5675 22.8888 17.8289C22.743 17.0903 22.3827 16.4118 21.8536 15.8793C21.3244 15.3468 20.6503 14.9842 19.9164 14.8374C19.1824 14.6906 18.4217 14.7661 17.7305 15.0545C17.0393 15.3429 16.4485 15.8311 16.0331 16.4574C15.6176 17.0838 15.3961 17.82 15.3965 18.5731C15.3965 19.5821 15.7948 20.5498 16.5037 21.2634C17.2127 21.9769 18.1743 22.3777 19.1769 22.3777Z" fill="white"/>
<defs>
<linearGradient id="paint0_linear_30559_46017" x1="25.2501" y1="73.7151" x2="8.27004" y2="45.3412" gradientUnits="userSpaceOnUse">
<stop stop-color="#1D1A40"/>
<stop offset="1" stop-color="#1D1A40" stop-opacity="0"/>
</linearGradient>
</defs>
</svg>
